<svg width="227" height="32" viewBox="0 0 227 32" fill="none" xmlns="http://www.w3.org/2000/svg">
<g id="Budget Tracker">
<path id="Vector" d="M221.161 11.2943V24.7884H216.567V7.52995H220.889L221.161 11.2943ZM226.36 7.41829L226.281 11.6771C226.057 11.6452 225.786 11.6186 225.467 11.5973C225.159 11.5654 224.877 11.5495 224.622 11.5495C223.973 11.5495 223.41 11.6345 222.931 11.8047C222.463 11.9642 222.07 12.2034 221.751 12.5224C221.442 12.8415 221.208 13.2296 221.049 13.6868C220.9 14.1441 220.815 14.6651 220.794 15.25L219.869 14.9629C219.869 13.8463 219.98 12.8202 220.204 11.8844C220.427 10.938 220.751 10.1139 221.177 9.4121C221.613 8.71028 222.144 8.16797 222.772 7.78515C223.399 7.40234 224.117 7.21094 224.925 7.21094C225.18 7.21094 225.441 7.2322 225.707 7.27474C225.972 7.30664 226.19 7.35449 226.36 7.41829Z" fill="#2B2B2B"/>
<path id="Vector_2" d="M206.57 25.1074C205.23 25.1074 204.029 24.8947 202.965 24.4694C201.902 24.0334 200.998 23.4326 200.254 22.667C199.52 21.9013 198.956 21.0134 198.563 20.0032C198.169 18.9824 197.973 17.8978 197.973 16.7493V16.1113C197.973 14.8034 198.159 13.6071 198.531 12.5224C198.903 11.4378 199.435 10.4967 200.126 9.69921C200.828 8.90169 201.678 8.29025 202.678 7.86491C203.678 7.42893 204.805 7.21094 206.06 7.21094C207.282 7.21094 208.367 7.41298 209.313 7.81706C210.26 8.22113 211.052 8.79535 211.69 9.53971C212.339 10.2841 212.828 11.1773 213.158 12.2194C213.487 13.2509 213.652 14.3993 213.652 15.6647V17.5787H199.935V14.5163H209.138V14.1653C209.138 13.5273 209.021 12.9584 208.787 12.4586C208.564 11.9482 208.223 11.5442 207.766 11.2464C207.309 10.9487 206.724 10.7998 206.012 10.7998C205.406 10.7998 204.885 10.9327 204.449 11.1986C204.013 11.4644 203.656 11.8366 203.38 12.3151C203.114 12.7936 202.912 13.3572 202.774 14.0058C202.646 14.6439 202.582 15.3457 202.582 16.1113V16.7493C202.582 17.4405 202.678 18.0785 202.869 18.6634C203.071 19.2482 203.353 19.7533 203.715 20.1787C204.087 20.604 204.534 20.9337 205.055 21.1676C205.586 21.4015 206.187 21.5185 206.857 21.5185C207.686 21.5185 208.457 21.359 209.17 21.04C209.893 20.7104 210.515 20.2159 211.036 19.5566L213.269 21.9811C212.908 22.5021 212.413 23.0019 211.786 23.4804C211.169 23.9589 210.425 24.3524 209.553 24.6608C208.681 24.9585 207.686 25.1074 206.57 25.1074Z" fill="#2B2B2B"/>
<path id="Vector_3" d="M185.78 0.265625V24.7815H181.187V0.265625H185.78ZM196.658 7.52309L189.162 16.0726L185.142 20.1399L183.467 16.8222L186.658 12.7708L191.14 7.52309H196.658ZM191.889 24.7815L186.785 16.8063L189.959 14.0309L197.185 24.7815H191.889Z" fill="#2B2B2B"/>
<path id="Vector_4" d="M170.975 21.5185C171.538 21.5185 172.038 21.4122 172.474 21.1995C172.91 20.9762 173.251 20.6678 173.495 20.2744C173.75 19.8703 173.883 19.3971 173.894 18.8548H178.216C178.206 20.067 177.881 21.1463 177.243 22.0927C176.605 23.0285 175.749 23.7675 174.675 24.3099C173.601 24.8415 172.4 25.1074 171.071 25.1074C169.731 25.1074 168.561 24.8841 167.562 24.4375C166.573 23.9908 165.748 23.3741 165.089 22.5872C164.43 21.7897 163.935 20.8645 163.606 19.8118C163.276 18.7485 163.111 17.6107 163.111 16.3984V15.9359C163.111 14.713 163.276 13.5752 163.606 12.5224C163.935 11.4591 164.43 10.534 165.089 9.74706C165.748 8.94954 166.573 8.32747 167.562 7.88086C168.55 7.43424 169.71 7.21094 171.039 7.21094C172.453 7.21094 173.692 7.4821 174.755 8.02441C175.829 8.56673 176.669 9.34299 177.275 10.3532C177.892 11.3527 178.206 12.5384 178.216 13.9101H173.894C173.883 13.3359 173.761 12.8149 173.527 12.347C173.304 11.8791 172.974 11.5069 172.538 11.2305C172.113 10.9433 171.586 10.7998 170.959 10.7998C170.289 10.7998 169.741 10.9433 169.316 11.2305C168.891 11.5069 168.561 11.8897 168.327 12.3789C168.093 12.8574 167.928 13.405 167.833 14.0218C167.748 14.6279 167.705 15.2659 167.705 15.9359V16.3984C167.705 17.0683 167.748 17.7117 167.833 18.3284C167.918 18.9452 168.077 19.4928 168.311 19.9713C168.556 20.4498 168.891 20.8273 169.316 21.1038C169.741 21.3803 170.294 21.5185 170.975 21.5185Z" fill="#2B2B2B"/>
<path id="Vector_5" d="M155.372 20.8964V13.2083C155.372 12.6554 155.281 12.1822 155.1 11.7887C154.92 11.3846 154.638 11.071 154.255 10.8476C153.883 10.6243 153.399 10.5127 152.804 10.5127C152.293 10.5127 151.852 10.6031 151.48 10.7838C151.107 10.954 150.82 11.2039 150.618 11.5335C150.416 11.8525 150.315 12.23 150.315 12.666H145.722C145.722 11.9323 145.892 11.2358 146.232 10.5765C146.572 9.9172 147.067 9.33767 147.715 8.83789C148.364 8.32747 149.135 7.92871 150.028 7.6416C150.932 7.35449 151.942 7.21094 153.059 7.21094C154.399 7.21094 155.59 7.43424 156.632 7.88086C157.674 8.32747 158.493 8.99739 159.088 9.89062C159.694 10.7838 159.997 11.9004 159.997 13.2402V20.6253C159.997 21.5717 160.056 22.3479 160.173 22.9541C160.29 23.5495 160.46 24.0706 160.683 24.5172V24.7884H156.041C155.818 24.3205 155.648 23.7356 155.531 23.0338C155.425 22.3214 155.372 21.6089 155.372 20.8964ZM155.978 14.277L156.01 16.8769H153.442C152.835 16.8769 152.309 16.946 151.862 17.0843C151.416 17.2225 151.049 17.4192 150.762 17.6745C150.475 17.919 150.262 18.2061 150.124 18.5358C149.996 18.8654 149.932 19.227 149.932 19.6204C149.932 20.0139 150.023 20.3701 150.204 20.6891C150.384 20.9975 150.645 21.242 150.985 21.4228C151.325 21.593 151.724 21.678 152.181 21.678C152.873 21.678 153.473 21.5398 153.984 21.2633C154.494 20.9868 154.888 20.6466 155.164 20.2425C155.451 19.8384 155.6 19.4556 155.611 19.094L156.823 21.04C156.653 21.476 156.419 21.9279 156.121 22.3958C155.834 22.8637 155.467 23.305 155.021 23.7197C154.574 24.1238 154.037 24.4587 153.41 24.7246C152.782 24.9798 152.038 25.1074 151.177 25.1074C150.081 25.1074 149.087 24.8894 148.194 24.4534C147.311 24.0068 146.609 23.3954 146.088 22.6191C145.578 21.8322 145.323 20.939 145.323 19.9394C145.323 19.0356 145.493 18.2327 145.833 17.5309C146.173 16.8291 146.673 16.2389 147.333 15.7604C148.002 15.2712 148.837 14.9044 149.837 14.6598C150.836 14.4046 151.995 14.277 153.314 14.277H155.978Z" fill="#2B2B2B"/>
<path id="Vector_6" d="M138.926 11.2943V24.7884H134.333V7.52995H138.655L138.926 11.2943ZM144.126 7.41829L144.046 11.6771C143.823 11.6452 143.552 11.6186 143.233 11.5973C142.925 11.5654 142.643 11.5495 142.388 11.5495C141.739 11.5495 141.175 11.6345 140.697 11.8047C140.229 11.9642 139.835 12.2034 139.516 12.5224C139.208 12.8415 138.974 13.2296 138.815 13.6868C138.666 14.1441 138.581 14.6651 138.559 15.25L137.634 14.9629C137.634 13.8463 137.746 12.8202 137.969 11.8844C138.193 10.938 138.517 10.1139 138.942 9.4121C139.378 8.71028 139.91 8.16797 140.537 7.78515C141.165 7.40234 141.882 7.21094 142.691 7.21094C142.946 7.21094 143.206 7.2322 143.472 7.27474C143.738 7.30664 143.956 7.35449 144.126 7.41829Z" fill="#2B2B2B"/>
<path id="Vector_7" d="M125.557 1.57812V24.802H120.788V1.57812H125.557ZM132.703 1.57812V5.32649H113.754V1.57812H132.703Z" fill="#2B2B2B"/>
<path id="Vector_8" d="M104.385 7.51659V10.7705H94.3359V7.51659H104.385ZM96.8242 3.25781H101.418V19.5752C101.418 20.0749 101.482 20.4577 101.609 20.7236C101.748 20.9894 101.95 21.1755 102.215 21.2819C102.481 21.3776 102.816 21.4254 103.22 21.4254C103.507 21.4254 103.763 21.4148 103.986 21.3935C104.22 21.3616 104.417 21.3297 104.576 21.2978L104.592 24.6793C104.199 24.8069 103.773 24.9079 103.316 24.9824C102.859 25.0568 102.354 25.094 101.801 25.094C100.791 25.094 99.908 24.9292 99.153 24.5996C98.4086 24.2593 97.8344 23.717 97.4303 22.9726C97.0263 22.2283 96.8242 21.25 96.8242 20.0377V3.25781Z" fill="#2B2B2B"/>
<path id="Vector_9" d="M85.9186 25.1074C84.5788 25.1074 83.3772 24.8947 82.3138 24.4694C81.2504 24.0334 80.3466 23.4326 79.6022 22.667C78.8685 21.9013 78.3049 21.0134 77.9115 20.0032C77.518 18.9824 77.3213 17.8978 77.3213 16.7493V16.1113C77.3213 14.8034 77.5074 13.6071 77.8796 12.5224C78.2517 11.4378 78.7834 10.4967 79.4746 9.69921C80.1764 8.90169 81.0271 8.29025 82.0267 7.86491C83.0262 7.42893 84.1534 7.21094 85.4082 7.21094C86.6311 7.21094 87.7157 7.41298 88.6621 7.81706C89.6085 8.22113 90.4007 8.79535 91.0387 9.53971C91.6874 10.2841 92.1765 11.1773 92.5061 12.2194C92.8358 13.2509 93.0006 14.3993 93.0006 15.6647V17.5787H79.2832V14.5163H88.4866V14.1653C88.4866 13.5273 88.3697 12.9584 88.1357 12.4586C87.9124 11.9482 87.5721 11.5442 87.1149 11.2464C86.6576 10.9487 86.0728 10.7998 85.3603 10.7998C84.7542 10.7998 84.2332 10.9327 83.7972 11.1986C83.3612 11.4644 83.005 11.8366 82.7285 12.3151C82.4627 12.7936 82.2606 13.3572 82.1224 14.0058C81.9948 14.6439 81.931 15.3457 81.931 16.1113V16.7493C81.931 17.4405 82.0267 18.0785 82.2181 18.6634C82.4201 19.2482 82.7019 19.7533 83.0635 20.1787C83.4356 20.604 83.8823 20.9337 84.4033 21.1676C84.935 21.4015 85.5358 21.5185 86.2057 21.5185C87.0351 21.5185 87.8061 21.359 88.5185 21.04C89.2416 20.7104 89.8637 20.2159 90.3847 19.5566L92.6178 21.9811C92.2563 22.5021 91.7618 23.0019 91.1344 23.4804C90.5177 23.9589 89.7733 24.3524 88.9013 24.6608C88.0294 24.9585 87.0351 25.1074 85.9186 25.1074Z" fill="#2B2B2B"/>
<path id="Vector_10" d="M69.9386 7.52995H74.1017V24.2141C74.1017 25.7879 73.7508 27.1225 73.049 28.2177C72.3578 29.3236 71.3901 30.1584 70.146 30.7219C68.9018 31.2962 67.4557 31.5833 65.8074 31.5833C65.0843 31.5833 64.3187 31.4876 63.5106 31.2962C62.713 31.1048 61.9474 30.807 61.2137 30.4029C60.4906 29.9989 59.8845 29.4884 59.3953 28.8717L61.4211 26.1601C61.9527 26.7769 62.5695 27.2554 63.2713 27.5957C63.9731 27.9466 64.7494 28.122 65.6001 28.122C66.4295 28.122 67.1313 27.9678 67.7055 27.6595C68.2798 27.3617 68.7211 26.9204 69.0294 26.3356C69.3378 25.7613 69.492 25.0648 69.492 24.2461V11.5176L69.9386 7.52995ZM58.3267 16.3665V16.0316C58.3267 14.713 58.4862 13.5167 58.8052 12.4427C59.1348 11.3581 59.5974 10.4276 60.1929 9.65136C60.799 8.8751 61.5327 8.2743 62.394 7.84896C63.2554 7.42361 64.2283 7.21094 65.313 7.21094C66.4614 7.21094 67.4238 7.42361 68.2 7.84896C68.9763 8.2743 69.6143 8.88042 70.1141 9.66731C70.6138 10.4436 71.002 11.3634 71.2785 12.4267C71.5656 13.4795 71.7889 14.6332 71.9484 15.888V16.6217C71.7889 17.8233 71.5496 18.9399 71.2306 19.9713C70.9116 21.0028 70.4916 21.9066 69.9705 22.6829C69.4495 23.4485 68.8008 24.044 68.0246 24.4694C67.2589 24.8947 66.3444 25.1074 65.2811 25.1074C64.2177 25.1074 63.2554 24.8894 62.394 24.4534C61.5433 24.0174 60.8149 23.406 60.2088 22.6191C59.6027 21.8322 59.1348 20.9071 58.8052 19.8437C58.4862 18.7804 58.3267 17.6213 58.3267 16.3665ZM62.9204 16.0316V16.3665C62.9204 17.079 62.9895 17.7436 63.1278 18.3603C63.266 18.9771 63.4787 19.5247 63.7658 20.0032C64.0635 20.4711 64.4304 20.838 64.8664 21.1038C65.313 21.359 65.8393 21.4866 66.4455 21.4866C67.2855 21.4866 67.9714 21.3112 68.5031 20.9603C69.0347 20.5987 69.4335 20.1042 69.6994 19.4769C69.9652 18.8495 70.1194 18.1264 70.1619 17.3076V15.2181C70.1406 14.5482 70.0503 13.9474 69.8908 13.4157C69.7313 12.8734 69.5079 12.4108 69.2208 12.028C68.9337 11.6452 68.5616 11.3474 68.1043 11.1348C67.6471 10.9221 67.1047 10.8157 66.4774 10.8157C65.8712 10.8157 65.3449 10.954 64.8983 11.2305C64.4623 11.4963 64.0954 11.8632 63.7977 12.331C63.5106 12.7989 63.2926 13.3519 63.1437 13.9899C62.9948 14.6173 62.9204 15.2978 62.9204 16.0316Z" fill="#2B2B2B"/>
<path id="Vector_11" d="M50.4941 21.0247V0.289062H55.1198V24.789H50.9567L50.4941 21.0247ZM39.584 16.3671V16.0322C39.584 14.7136 39.7329 13.5173 40.0306 12.4433C40.3283 11.3587 40.7643 10.4283 41.3385 9.65199C41.9128 8.87574 42.6199 8.27494 43.46 7.84959C44.3 7.42424 45.257 7.21157 46.331 7.21157C47.3412 7.21157 48.2238 7.42424 48.9788 7.84959C49.7444 8.27494 50.3931 8.88105 50.9248 9.66795C51.4671 10.4442 51.9031 11.364 52.2327 12.4274C52.5624 13.4801 52.8016 14.6339 52.9505 15.8886V16.6224C52.8016 17.824 52.5624 18.9405 52.2327 19.972C51.9031 21.0034 51.4671 21.9073 50.9248 22.6835C50.3931 23.4492 49.7444 24.0446 48.9788 24.47C48.2132 24.8953 47.32 25.108 46.2991 25.108C45.2251 25.108 44.2681 24.89 43.4281 24.454C42.5986 24.0181 41.8968 23.4066 41.3226 22.6197C40.759 21.8328 40.3283 20.9077 40.0306 19.8444C39.7329 18.781 39.584 17.6219 39.584 16.3671ZM44.1777 16.0322V16.3671C44.1777 17.0796 44.2309 17.7442 44.3372 18.361C44.4542 18.9777 44.6403 19.5253 44.8955 20.0039C45.1613 20.4717 45.5016 20.8386 45.9163 21.1044C46.3417 21.3596 46.8574 21.4873 47.4635 21.4873C48.2504 21.4873 48.8991 21.3118 49.4095 20.9609C49.9199 20.5993 50.308 20.1049 50.5739 19.4775C50.8503 18.8501 51.0098 18.127 51.0524 17.3082V15.2187C51.0205 14.5488 50.9248 13.948 50.7653 13.4163C50.6164 12.874 50.3931 12.4114 50.0954 12.0286C49.8082 11.6458 49.4467 11.3481 49.0107 11.1354C48.5854 10.9227 48.0803 10.8164 47.4954 10.8164C46.8999 10.8164 46.3895 10.9546 45.9642 11.2311C45.5388 11.4969 45.1932 11.8638 44.9274 12.3317C44.6722 12.7996 44.4808 13.3525 44.3532 13.9905C44.2362 14.6179 44.1777 15.2985 44.1777 16.0322Z" fill="#2B2B2B"/>
<path id="Vector_12" d="M31.8901 20.6429V7.51562H36.4839V24.774H32.1613L31.8901 20.6429ZM32.4005 17.1019L33.7563 17.07C33.7563 18.2184 33.6234 19.2871 33.3576 20.276C33.0917 21.2543 32.693 22.105 32.1613 22.8281C31.6296 23.5405 30.9597 24.0988 30.1515 24.5029C29.3434 24.8963 28.3916 25.0931 27.2964 25.0931C26.4563 25.0931 25.6801 24.9761 24.9676 24.7421C24.2658 24.4976 23.6597 24.1201 23.1492 23.6097C22.6495 23.0886 22.256 22.424 21.9689 21.6158C21.6924 20.7971 21.5542 19.8134 21.5542 18.665V7.51562H26.1479V18.6969C26.1479 19.2073 26.2064 19.638 26.3234 19.9889C26.451 20.3398 26.6265 20.6269 26.8498 20.8502C27.0731 21.0735 27.3336 21.233 27.6313 21.3287C27.9397 21.4244 28.28 21.4723 28.6522 21.4723C29.5986 21.4723 30.3429 21.2809 30.8852 20.8981C31.4382 20.5153 31.8263 19.9942 32.0496 19.3349C32.2836 18.665 32.4005 17.9207 32.4005 17.1019Z" fill="#2B2B2B"/>
<path id="Vector_13" d="M9.8906 14.6097H3.92512L3.89322 11.3239H8.90167C9.78427 11.3239 10.5074 11.2122 11.0709 10.9889C11.6345 10.755 12.0546 10.42 12.331 9.98403C12.6181 9.53742 12.7617 8.9951 12.7617 8.35708C12.7617 7.63399 12.6235 7.04914 12.347 6.60253C12.0811 6.15591 11.6611 5.83159 11.0869 5.62955C10.5233 5.42751 9.7949 5.32649 8.90167 5.32649H5.58397V24.802H0.798828V1.57812H8.90167C10.2521 1.57812 11.4591 1.70573 12.5224 1.96094C13.5964 2.21614 14.5056 2.60427 15.25 3.12532C15.9943 3.64637 16.5632 4.30566 16.9567 5.10318C17.3501 5.89007 17.5468 6.82583 17.5468 7.91047C17.5468 8.8675 17.3288 9.75009 16.8929 10.5582C16.4675 11.3664 15.7923 12.0257 14.8672 12.5361C13.9527 13.0465 12.7564 13.3283 11.2783 13.3815L9.8906 14.6097ZM9.68325 24.802H2.61718L4.48339 21.0696H9.68325C10.5233 21.0696 11.2092 20.9367 11.7409 20.6709C12.2725 20.3944 12.666 20.0222 12.9212 19.5543C13.1764 19.0864 13.304 18.5494 13.304 17.9433C13.304 17.2628 13.187 16.6726 12.9531 16.1728C12.7298 15.673 12.3682 15.2902 11.8685 15.0244C11.3687 14.7479 10.7094 14.6097 9.8906 14.6097H5.28091L5.31281 11.3239H11.055L12.1556 12.6159C13.5698 12.5946 14.7076 12.8445 15.569 13.3655C16.4409 13.8759 17.0736 14.5406 17.4671 15.3593C17.8712 16.1781 18.0732 17.0554 18.0732 17.9912C18.0732 19.4799 17.7489 20.7347 17.1002 21.7555C16.4516 22.7657 15.4999 23.526 14.2451 24.0364C13.0009 24.5468 11.4803 24.802 9.68325 24.802Z" fill="#2B2B2B"/>
</g>
</svg>
